<svg height='100px' width='100px'  fill="#000000" xmlns="http://www.w3.org/2000/svg" viewBox="0 0 47.79 89.97" x="0px" y="0px"><title>Blood Sample</title><g data-name="Blood Sample"><path d="M69.17,15.87H52.31a6.42,6.42,0,0,1-1.26,0c-1.45-.3-1.49-1.65-1.49-2.81V9.46c0-.91-.18-2,.46-2.78.87-1,3-.63,4.2-.63H67.73c.47,0,1,0,1.43,0C70.82,6.15,71,7.5,71,8.82v4c0,1.37,0,3-1.86,3.08-.63,0-.63,1,0,1A2.9,2.9,0,0,0,72,14c0-1,0-2,0-3,0-2.24.49-5.77-2.71-6-1.44-.1-2.91,0-4.36,0H56.61c-1.7,0-3.41-.06-5.12,0a2.91,2.91,0,0,0-2.77,2,9.84,9.84,0,0,0-.14,2.87c0,1.25,0,2.5,0,3.74a3,3,0,0,0,1.62,2.93c1.26.6,3.21.28,4.55.28h14.4A.49.49,0,0,0,69.17,15.87Z" transform="translate(-24.24 -5.03)"></path><path d="M69,16.36v71.1c0,1.09,0,2.19,0,3.28,0,1.31-.48,3.17-2.06,3.22-1.28,0-2.57,0-3.85,0-3.18,0-6.39.15-9.57,0-2.08-.1-2-2.77-2-4.36V16.36a.49.49,0,0,0-1,0V88.25c0,.86,0,1.73,0,2.59,0,1.82.89,4,3,4.11,1.27,0,2.54,0,3.81,0,3.22,0,6.47.11,9.69,0,2.47-.09,3-2.86,3-4.85V16.36a.49.49,0,0,0-1,0Z" transform="translate(-24.24 -5.03)"></path><path d="M53.41,27.49V16.36a.49.49,0,0,0-1,0V27.49a.49.49,0,0,0,1,0Z" transform="translate(-24.24 -5.03)"></path><path d="M67,16.36V84.72c0,1.49.57,7-1.37,7.4a12.65,12.65,0,0,1-2.32,0H55.45a1.81,1.81,0,0,1-.79-.08c-.94-.45-1.07-2.11-1.09-3-.06-3.12,0-6.26,0-9.38v-31a.49.49,0,0,0-1,0v40c0,1.77.41,4.38,2.62,4.42,2.64,0,5.28,0,7.92,0,.82,0,1.66.06,2.47,0C67.34,93,67.89,90.83,68,89.4c0-.62,0-1.24,0-1.86V16.36a.49.49,0,0,0-1,0Z" transform="translate(-24.24 -5.03)"></path><path d="M51.06,28H60c1.27,0,3.07-.27,4,.72.75.77.51,2.16.51,3.14v11c0,1,.05,2,0,3-.1,1.89-2.06,1.94-3.49,1.94h-10a.49.49,0,0,0,0,1h9.58c1.52,0,3.14.1,4.23-1.19.79-.94.63-2.13.63-3.26V32.64c0-1,.06-1.93,0-2.89-.15-2-2.12-2.74-3.87-2.74H51.06a.49.49,0,0,0,0,1Z" transform="translate(-24.24 -5.03)"></path><path d="M51.06,33.23h8.58a.49.49,0,0,0,0-1H51.06a.49.49,0,0,0,0,1Z" transform="translate(-24.24 -5.03)"></path><path d="M51.06,36.79h8.58a.49.49,0,0,0,0-1H51.06a.49.49,0,0,0,0,1Z" transform="translate(-24.24 -5.03)"></path><path d="M51.06,40.35h8.58a.49.49,0,0,0,0-1H51.06a.49.49,0,0,0,0,1Z" transform="translate(-24.24 -5.03)"></path><path d="M50.16,8.17v8.05a.49.49,0,0,0,1,0V8.17a.49.49,0,0,0-1,0Z" transform="translate(-24.24 -5.03)"></path><path d="M51.77,8.17v8.2a.49.49,0,0,0,1,0V8.17a.49.49,0,0,0-1,0Z" transform="translate(-24.24 -5.03)"></path><path d="M53.39,8.17v8.2a.49.49,0,0,0,1,0V8.17a.49.49,0,0,0-1,0Z" transform="translate(-24.24 -5.03)"></path><path d="M55,8.17v8.2a.49.49,0,0,0,1,0V8.17a.49.49,0,0,0-1,0Z" transform="translate(-24.24 -5.03)"></path><path d="M56.62,8.17v8.2a.49.49,0,0,0,1,0V8.17a.49.49,0,0,0-1,0Z" transform="translate(-24.24 -5.03)"></path><path d="M58.24,8.17v8.2a.49.49,0,0,0,1,0V8.17a.49.49,0,0,0-1,0Z" transform="translate(-24.24 -5.03)"></path><path d="M59.85,8.17v8.2a.49.49,0,0,0,1,0V8.17a.49.49,0,0,0-1,0Z" transform="translate(-24.24 -5.03)"></path><path d="M61.47,8.17v8.2a.49.49,0,0,0,1,0V8.17a.49.49,0,0,0-1,0Z" transform="translate(-24.24 -5.03)"></path><path d="M63.09,8.17v8.2a.49.49,0,0,0,1,0V8.17a.49.49,0,0,0-1,0Z" transform="translate(-24.24 -5.03)"></path><path d="M64.7,8.17v8.2a.49.49,0,0,0,1,0V8.17a.49.49,0,0,0-1,0Z" transform="translate(-24.24 -5.03)"></path><path d="M66.32,8.17v8.2a.49.49,0,0,0,1,0V8.17a.49.49,0,0,0-1,0Z" transform="translate(-24.24 -5.03)"></path><path d="M67.94,8.17v8.2a.49.49,0,0,0,1,0V8.17a.49.49,0,0,0-1,0Z" transform="translate(-24.24 -5.03)"></path><path d="M69.55,8.17v8a.49.49,0,0,0,1,0v-8a.49.49,0,0,0-1,0Z" transform="translate(-24.24 -5.03)"></path><path d="M53.27,22.27a5.36,5.36,0,0,1,2.84-1.65c1.16-.19,1.84.41,2.69,1.08a4.3,4.3,0,0,0,2,.85A11.79,11.79,0,0,0,67.73,21c.56-.29.06-1.13-.49-.84-2,1.06-5.46,2.33-7.6.94a8,8,0,0,0-2.11-1.38,3.84,3.84,0,0,0-2.29.11,6.84,6.84,0,0,0-2.66,1.74c-.43.46.26,1.15.69.69Z" transform="translate(-24.24 -5.03)"></path><path d="M31.08,60.8h5.74a.49.49,0,0,0,0-1H31.08a.49.49,0,0,0,0,1Z" transform="translate(-24.24 -5.03)"></path><path d="M31.08,57h2.71a.49.49,0,0,0,0-1H31.08a.49.49,0,0,0,0,1Z" transform="translate(-24.24 -5.03)"></path><path d="M31.08,53.22h2.71a.49.49,0,0,0,0-1H31.08a.49.49,0,0,0,0,1Z" transform="translate(-24.24 -5.03)"></path><path d="M31.08,49.43h2.71a.49.49,0,0,0,0-1H31.08a.49.49,0,0,0,0,1Z" transform="translate(-24.24 -5.03)"></path><path d="M31.08,77h5.74a.49.49,0,0,0,0-1H31.08a.49.49,0,0,0,0,1Z" transform="translate(-24.24 -5.03)"></path><path d="M31.08,73.22h2.71a.49.49,0,0,0,0-1H31.08a.49.49,0,0,0,0,1Z" transform="translate(-24.24 -5.03)"></path><path d="M31.08,69.42h2.71a.49.49,0,0,0,0-1H31.08a.49.49,0,0,0,0,1Z" transform="translate(-24.24 -5.03)"></path><path d="M31.08,81h2.71a.49.49,0,0,0,0-1H31.08a.49.49,0,0,0,0,1Z" transform="translate(-24.24 -5.03)"></path><path d="M31.08,65.63h2.71a.49.49,0,0,0,0-1H31.08a.49.49,0,0,0,0,1Z" transform="translate(-24.24 -5.03)"></path><path d="M31.08,45.64h5.74a.49.49,0,0,0,0-1H31.08a.49.49,0,0,0,0,1Z" transform="translate(-24.24 -5.03)"></path><path d="M31.08,41.85h2.71a.49.49,0,0,0,0-1H31.08a.49.49,0,0,0,0,1Z" transform="translate(-24.24 -5.03)"></path><path d="M31.08,38.06h2.71a.49.49,0,0,0,0-1H31.08a.49.49,0,0,0,0,1Z" transform="translate(-24.24 -5.03)"></path><path d="M31.08,34.27h2.71a.49.49,0,0,0,0-1H31.08a.49.49,0,0,0,0,1Z" transform="translate(-24.24 -5.03)"></path><path d="M31.08,30.48h5.74a.49.49,0,0,0,0-1H31.08a.49.49,0,0,0,0,1Z" transform="translate(-24.24 -5.03)"></path><path d="M31.08,26.69h2.71a.49.49,0,0,0,0-1H31.08a.49.49,0,0,0,0,1Z" transform="translate(-24.24 -5.03)"></path><path d="M32.44,87.45v7a.5.5,0,0,0,.49.49H38a.5.5,0,0,0,.49-.49v-7A.5.5,0,0,0,38,87H32.93a.49.49,0,0,0,0,1H38l-.49-.49v7L38,94H32.93l.49.49v-7A.49.49,0,0,0,32.44,87.45Z" transform="translate(-24.24 -5.03)"></path><path d="M40.33,84.36V21.65a.5.5,0,0,0-.49-.49H31.08a.5.5,0,0,0-.49.49V84.36a.5.5,0,0,0,.49.49h8.76a.49.49,0,0,0,0-1H31.08l.49.49V21.65l-.49.49h8.76l-.49-.49V84.36A.49.49,0,0,0,40.33,84.36Z" transform="translate(-24.24 -5.03)"></path><path d="M32.93,18.17h4.87l-.49-.49v4l.49-.49H32.93l.49.49v-4a.49.49,0,0,0-1,0v4a.5.5,0,0,0,.49.49h4.87a.5.5,0,0,0,.49-.49v-4a.5.5,0,0,0-.49-.49H32.93A.49.49,0,0,0,32.93,18.17Z" transform="translate(-24.24 -5.03)"></path><path d="M45.69,83.87H29.15c-1.26,0-2.55-.09-3.8,0a1,1,0,0,0-1,1.07c0,.68-.26,2.08.2,2.66s2.27.35,3,.35H40.87c1.55,0,3.14.12,4.68,0,.78-.06,1-.53,1-1.26,0-.89.35-2.49-.77-2.8a.49.49,0,0,0-.26.94c.11,0,.05.67.05.89s.15,1.08,0,1.3c.09-.14-.4-.06-.59-.06H26.27a3.1,3.1,0,0,1-1,0c-.05,0-.05,0,0,0s0-.25,0-.31c0-.48,0-1,0-1.49s-.18-.35.32-.35H45.69A.49.49,0,0,0,45.69,83.87Z" transform="translate(-24.24 -5.03)"></path><path d="M35.85,17.39V12.52a.49.49,0,0,0-1,0v4.87a.49.49,0,0,0,1,0Z" transform="translate(-24.24 -5.03)"></path><path d="M46.1,94H24.81a.49.49,0,0,0,0,1H46.1a.49.49,0,0,0,0-1Z" transform="translate(-24.24 -5.03)"></path><path d="M36.64,7.33c-.08,1.05-1.08,2.21-1.7,3h.84a14.25,14.25,0,0,1-1.33-2c-.29-.56-.56-1.12-.16-1.72a1.29,1.29,0,0,1,2.34.72c0,.62,1,.63,1,0-.17-2.28-3.28-3.18-4.31-.93-.71,1.54.74,3.29,1.63,4.45a.5.5,0,0,0,.84,0,7.34,7.34,0,0,0,1.84-3.51C37.66,6.7,36.69,6.7,36.64,7.33Z" transform="translate(-24.24 -5.03)"></path></g></svg>