<svg height='100px' width='100px'  fill="#000000" xmlns="http://www.w3.org/2000/svg" viewBox="0 0 64 64" x="0px" y="0px"><title>calendr-date-check_mark</title><g data-name="Outline Icon"><path d="M57.414,7H52V6.034A4.039,4.039,0,0,0,47.965,2h-.93A4.039,4.039,0,0,0,43,6.034V7.5H27V6.034A4.039,4.039,0,0,0,22.965,2h-.93A4.039,4.039,0,0,0,18,6.034V7H12.586A4.6,4.6,0,0,0,8,11.6V29.769a1,1,0,0,0,2,0V21H47a1,1,0,0,0,0-2H10V11.6A2.6,2.6,0,0,1,12.586,9H18v1.966A4.039,4.039,0,0,0,22.035,15h.93A4.039,4.039,0,0,0,27,10.966V9.5H43v1.466A4.039,4.039,0,0,0,47.035,15h.93A4.039,4.039,0,0,0,52,10.966V9h5.414A2.6,2.6,0,0,1,60,11.6V19H54a1,1,0,0,0,0,2h6V49.4A2.6,2.6,0,0,1,57.414,52H35a1,1,0,0,0,0,2H57.414A4.6,4.6,0,0,0,62,49.4V11.6A4.6,4.6,0,0,0,57.414,7ZM25,10.966A2.037,2.037,0,0,1,22.965,13h-.93A2.037,2.037,0,0,1,20,10.966V6.034A2.037,2.037,0,0,1,22.035,4h.93A2.037,2.037,0,0,1,25,6.034Zm25,0A2.037,2.037,0,0,1,47.965,13h-.93A2.037,2.037,0,0,1,45,10.966V6.034A2.037,2.037,0,0,1,47.035,4h.93A2.037,2.037,0,0,1,50,6.034Z"></path><path d="M11.721,44.507a1,1,0,1,0-1.442,1.387l4.616,4.8a1,1,0,0,0,1.441,0l15.385-16a1,1,0,0,0-1.442-1.386L15.615,48.558Z"></path><path d="M29.778,41.186a1,1,0,0,0-.589,1.286,12.994,12.994,0,1,1-6.161-6.993,1,1,0,1,0,.929-1.771,14.983,14.983,0,1,0,7.107,8.066A1,1,0,0,0,29.778,41.186Z"></path></g></svg>