<svg height='100px' width='100px'  fill="#000000" xmlns="http://www.w3.org/2000/svg" data-name="Layer 1" viewBox="0 0 100 100" x="0px" y="0px"><title>Covid</title><path d="M82.55621,5.12982a.99992.99992,0,0,0-1.41418,0L76.89935,9.3725a.99989.99989,0,0,0,0,1.41418l2.45,2.44983-4.24285,4.24286-2.29291-2.29291a.99993.99993,0,0,0-1.41419,0L43.29291,43.29291a.99988.99988,0,0,0,0,1.41418L45.58582,47l-7.29291,7.29291a.99988.99988,0,0,0,0,1.41418l6,6a.99992.99992,0,0,0,1.41418,0L53,54.41418l2.29291,2.29291a.99992.99992,0,0,0,1.41418,0L66,47.41418l.12549-.12548A10.85088,10.85088,0,0,0,74.645,48.66626a16.97943,16.97943,0,0,1-7.43347,27.51257,14.91656,14.91656,0,0,0-14.75208-2.109,17.07106,17.07106,0,0,1-1.742-1.37829A1.00466,1.00466,0,0,0,51,72V66a1.00006,1.00006,0,0,0-1-1H24a1.00006,1.00006,0,0,0-1,1v6a1.00006,1.00006,0,0,0,1,1h9.8584a31.11166,31.11166,0,0,0,9.50036,11.76764A15.00363,15.00363,0,0,0,43.0506,87H34a1.00006,1.00006,0,0,0-1,1v6a1.00006,1.00006,0,0,0,1,1H82a1.00006,1.00006,0,0,0,1-1V88a1.00006,1.00006,0,0,0-1-1H77.22546a30.99214,30.99214,0,0,0,5.73218-49.83783,10.92277,10.92277,0,0,0-1.66894-5.03668l3.52484-3.52484a.99993.99993,0,0,0,0-1.41419l-2.29291-2.29291,4.243-4.243,2.293,2.29285a.99992.99992,0,0,0,1.41418,0L94.713,18.70123a.99992.99992,0,0,0,0-1.41418Zm-3.53552,4.94977,2.82837-2.82843,10.74261,10.743-2.828,2.82794ZM81,38a8.99983,8.99983,0,1,1-2.636-6.364A8.96749,8.96749,0,0,1,81,38ZM72,27a10.98857,10.98857,0,0,0-7.47125,19.057L56,54.58575,45.41418,44l26.6922-26.69226L82.69226,27.89355l-2.63519,2.6352A10.95882,10.95882,0,0,0,72,27ZM45,59.58575,40.41418,55,47,48.41418,51.58582,53ZM81,93H35V88.99994H81ZM48.80762,78.80762A12.98657,12.98657,0,0,1,70.94946,87H66.94128a8.99666,8.99666,0,0,0-17.88256,0H45.05054A12.94857,12.94857,0,0,1,48.80762,78.80762ZM64.92059,87H51.07941a6.99054,6.99054,0,0,1,13.84118,0ZM25,66.99994H49V71H25ZM41.494,80.506A29.09778,29.09778,0,0,1,36.07831,73H48.17a19.06986,19.06986,0,0,0,2.27411,2.05725,15.02614,15.02614,0,0,0-6.46631,7.65381A29.21839,29.21839,0,0,1,41.494,80.506ZM91,60A29.00544,29.00544,0,0,1,72.9422,86.85773a14.92693,14.92693,0,0,0-4.06152-9.1626,18.98341,18.98341,0,0,0,7.80145-29.75269,10.99565,10.99565,0,0,0,6.152-8.10424A28.89123,28.89123,0,0,1,91,60ZM81.10645,23.47937l-4.58582-4.58582,4.24286-4.24285,4.58594,4.58569Z"></path><path d="M72,32a6,6,0,1,0,6,6A6.00057,6.00057,0,0,0,72,32Zm4,6a4.0002,4.0002,0,1,1-1.17163-2.82837A3.98316,3.98316,0,0,1,76,38Z"></path><path d="M23,38.9494V42a1,1,0,0,0,2,0V38.9494a14.89073,14.89073,0,0,0,5.61029-1.50012l1.52368,2.6391a1,1,0,0,0,1.73206-1l-1.517-2.6275a15.07707,15.07707,0,0,0,4.11182-4.11182l2.6275,1.517a1,1,0,0,0,1-1.73206l-2.6391-1.52368A14.87567,14.87567,0,0,0,38.85126,26c.04413-.3302.07586-.66333.09814-1H42a1,1,0,0,0,0-2H38.9494a14.89073,14.89073,0,0,0-1.50012-5.61029l2.6391-1.52368a1,1,0,1,0-1-1.73206l-2.6275,1.517a15.07873,15.07873,0,0,0-4.11182-4.11182l1.517-2.6275a1,1,0,0,0-1.73206-1l-1.52362,2.639A14.891,14.891,0,0,0,25,9.05054V6a1,1,0,0,0-2,0V9.05054a14.891,14.891,0,0,0-5.61035,1.50012L15.866,7.91162a1,1,0,1,0-1.73206,1l1.517,2.6275a15.07873,15.07873,0,0,0-4.11182,4.11182l-2.6275-1.517a1,1,0,0,0-1,1.73206l2.6391,1.52368A14.89073,14.89073,0,0,0,9.0506,23H6a1,1,0,0,0,0,2H9.0506a14.89073,14.89073,0,0,0,1.50012,5.61029L7.91162,32.134a1,1,0,0,0,1,1.73206l2.6275-1.517a15.07707,15.07707,0,0,0,4.11182,4.11182l-1.517,2.6275a1,1,0,0,0,1.73206,1L17,38.12427l.38971-.675A14.89073,14.89073,0,0,0,23,38.9494ZM14,23H11.05054a12.94857,12.94857,0,0,1,3.75708-8.19238,13.09952,13.09952,0,0,1,1.8471-1.52985L18.134,15.83984a1,1,0,1,0,1.73206-1L18.3913,12.28552a12.87809,12.87809,0,0,1,11.2174,0L28.134,14.83984a1,1,0,0,0,1.73206,1l1.47925-2.56207a13.09952,13.09952,0,0,1,1.8471,1.52985A12.94857,12.94857,0,0,1,36.94946,23H34a1,1,0,0,0,0,2h2.94946a12.94857,12.94857,0,0,1-3.75708,8.19238,13.09952,13.09952,0,0,1-1.8471,1.52985L29.866,32.16016a1,1,0,1,0-1.73206,1l1.47473,2.55432a12.87809,12.87809,0,0,1-11.2174,0L19.866,33.16016a1,1,0,1,0-1.73206-1l-1.47925,2.56207a13.09952,13.09952,0,0,1-1.8471-1.52985A12.94857,12.94857,0,0,1,11.05054,25H14a1,1,0,0,0,0-2Z"></path><path d="M18,21a1.00006,1.00006,0,1,0-.70709-.29291A1.00659,1.00659,0,0,0,18,21Z"></path><path d="M30,23a1.00006,1.00006,0,1,0-.70709-.29291A1.00659,1.00659,0,0,0,30,23Z"></path><path d="M24,19a1.00006,1.00006,0,1,0-.70709-.29291A1.00659,1.00659,0,0,0,24,19Z"></path><path d="M19.29291,26.70709A.99992.99992,0,1,0,19,26,1.00659,1.00659,0,0,0,19.29291,26.70709Z"></path><path d="M26,29a1.00006,1.00006,0,1,0,.70709.29291A1.00659,1.00659,0,0,0,26,29Z"></path><path d="M24,25a1.00006,1.00006,0,1,0-.70709-.29291A1.00659,1.00659,0,0,0,24,25Z"></path></svg>