<svg height='100px' width='100px'  fill="#000000" xmlns="http://www.w3.org/2000/svg" viewBox="0 0 64 64" x="0px" y="0px"><title>transport,vehicle,import,export, package, cargo, logistic</title><g data-name="Layer 5"><path d="M55.445,29.467A1,1,0,0,0,54.6,29H46V24a1,1,0,0,0-1-1H15a1,1,0,0,0-1,1v3H10a1,1,0,0,0,0,2h4v9H3a1,1,0,0,0,0,2H14V50H5a1,1,0,0,0,0,2h9v2a1,1,0,0,0,1,1h4.142a3.981,3.981,0,0,0,7.716,0H49.142a3.981,3.981,0,0,0,7.716,0H61a1,1,0,0,0,1-1V40.154a1,1,0,0,0-.154-.533ZM23,56a2,2,0,1,1,2-2A2,2,0,0,1,23,56Zm0-6a4,4,0,0,0-3.858,3H16V25H44V53H26.858A4,4,0,0,0,23,50Zm30,6a2,2,0,1,1,2-2A2,2,0,0,1,53,56Zm7-3H56.858a3.981,3.981,0,0,0-7.716,0H46V31h8.048L60,40.443Z"></path><path d="M26,36h8.586l-2.293,2.293a1,1,0,1,0,1.414,1.414l4-4a1,1,0,0,0,0-1.416l-4-4a1,1,0,0,0-1.414,1.414L34.586,34H26a1,1,0,0,0,0,2Z"></path><path d="M26.707,46.293,24.414,44H33a1,1,0,0,0,0-2H24.414l2.293-2.293a1,1,0,0,0-1.414-1.414l-4,4a1,1,0,0,0,0,1.416l4,4a1,1,0,0,0,1.414-1.414Z"></path><path d="M5,29H6a1,1,0,0,0,0-2H5a1,1,0,0,0,0,2Z"></path><path d="M61,60H3a1,1,0,0,0,0,2H61a1,1,0,0,0,0-2Z"></path><path d="M51,43H49a1,1,0,0,0,0,2h2a1,1,0,0,0,0-2Z"></path><path d="M52.5,33H49a1,1,0,0,0-1,1v6a1,1,0,0,0,1,1h7a1,1,0,0,0,.864-1.5l-3.5-6A1,1,0,0,0,52.5,33ZM50,39V35h1.926l2.333,4Z"></path><path d="M60.8,3.427a8.177,8.177,0,0,1-5.847-1.018l-.439-.265a.91.91,0,0,0-.085-.037c-.029-.014-.058-.026-.088-.038a.993.993,0,0,0-.688,0c-.03.012-.059.024-.088.038a.91.91,0,0,0-.085.037l-.439.265A8.167,8.167,0,0,1,47.2,3.427a1,1,0,0,0-1.2.98v10.07a7.867,7.867,0,0,0,1.11,4.029,7.762,7.762,0,0,0,3.616,3.172l2.878,1.24h0a.994.994,0,0,0,.786,0h0l2.878-1.24a7.762,7.762,0,0,0,3.616-3.172A7.867,7.867,0,0,0,62,14.477V4.407a1,1,0,0,0-1.2-.98ZM48.827,17.481a5.867,5.867,0,0,1-.827-3V5.556a10.138,10.138,0,0,0,5-.877v15.8l-1.483-.639A5.775,5.775,0,0,1,48.827,17.481Zm11.173-3a5.867,5.867,0,0,1-.827,3,5.775,5.775,0,0,1-2.69,2.36L55,20.48V4.679a10.14,10.14,0,0,0,5,.877Z"></path></g></svg>