<svg height='100px' width='100px'  fill="#000000" xmlns="http://www.w3.org/2000/svg" xmlns:xlink="http://www.w3.org/1999/xlink" version="1.1" x="0px" y="0px" viewBox="0 0 100 100" style="enable-background:new 0 0 100 100;" xml:space="preserve"><style type="text/css">
	.st0{fill:none;stroke:#000000;stroke-width:2;stroke-linecap:round;stroke-linejoin:round;stroke-miterlimit:10;}
</style><path d="M50,92.4c-0.6,0-1-0.4-1-1V50.4L19,38.7c-0.5-0.2-0.8-0.8-0.6-1.3c0.2-0.5,0.8-0.8,1.3-0.6l30.7,12c0.4,0.1,0.6,0.5,0.6,0.9  v41.6C51,91.9,50.6,92.4,50,92.4z"></path><path d="M50,92.4c-0.1,0-0.3,0-0.4-0.1L18.9,79c-0.4-0.2-0.6-0.5-0.6-0.9V62.8c0-0.6,0.4-1,1-1s1,0.4,1,1v14.6l30.1,13.1  c0.5,0.2,0.7,0.8,0.5,1.3C50.8,92.1,50.4,92.4,50,92.4z"></path><path d="M39.7,67.1c-0.1,0-0.3,0-0.4-0.1L8.6,53.7c-0.3-0.1-0.5-0.4-0.6-0.6c-0.1-0.3,0-0.6,0.1-0.8l10.3-15  c0.3-0.4,0.8-0.5,1.2-0.4l30.7,12c0.3,0.1,0.5,0.3,0.6,0.6c0.1,0.3,0.1,0.6-0.1,0.8L40.5,66.7C40.3,67,40,67.1,39.7,67.1z   M10.5,52.4l28.8,12.5l9.2-14.6L19.7,39L10.5,52.4z"></path><path d="M19.3,38.8c-0.4,0-0.8-0.3-0.9-0.7c-0.2-0.5,0.1-1.1,0.6-1.3l16.2-5.6c0.5-0.2,1.1,0.1,1.3,0.6c0.2,0.5-0.1,1.1-0.6,1.3  l-16.2,5.6C19.6,38.8,19.4,38.8,19.3,38.8z"></path><path d="M50,92.4c-0.6,0-1-0.4-1-1V49.8c0-0.4,0.3-0.8,0.6-0.9l30.7-12c0.5-0.2,1.1,0.1,1.3,0.6c0.2,0.5-0.1,1.1-0.6,1.3L51,50.4  v40.9C51,91.9,50.6,92.4,50,92.4z"></path><path d="M50,92.4c-0.4,0-0.8-0.2-0.9-0.6c-0.2-0.5,0-1.1,0.5-1.3l30.1-13.1V62.8c0-0.6,0.4-1,1-1s1,0.4,1,1V78  c0,0.4-0.2,0.8-0.6,0.9L50.4,92.3C50.3,92.3,50.1,92.4,50,92.4z"></path><path d="M60.3,67.1c-0.3,0-0.7-0.2-0.8-0.5L49.2,50.3C49,50,49,49.7,49,49.5c0.1-0.3,0.3-0.5,0.6-0.6l30.7-12c0.4-0.2,0.9,0,1.2,0.4  l10.3,15c0.2,0.2,0.2,0.6,0.1,0.8c-0.1,0.3-0.3,0.5-0.6,0.6L60.7,67.1C60.6,67.1,60.5,67.1,60.3,67.1z M51.5,50.3l9.2,14.6  l28.8-12.5L80.3,39L51.5,50.3z"></path><path d="M80.7,38.8c-0.1,0-0.2,0-0.3-0.1l-16.2-5.6c-0.5-0.2-0.8-0.8-0.6-1.3c0.2-0.5,0.7-0.8,1.3-0.6L81,36.8  c0.5,0.2,0.8,0.8,0.6,1.3C81.5,38.5,81.1,38.8,80.7,38.8z"></path><path d="M54.6,38.5c-0.6,0-1-0.4-1-1V21.3c0-0.6,0.4-1,1-1h5.7L50,10L39.7,20.3h5.7c0.6,0,1,0.4,1,1v16.1c0,0.6-0.4,1-1,1  s-1-0.4-1-1V22.3h-7.1c-0.4,0-0.8-0.2-0.9-0.6c-0.2-0.4-0.1-0.8,0.2-1.1L49.3,7.9c0.4-0.4,1-0.4,1.4,0l12.7,12.7  c0.3,0.3,0.4,0.7,0.2,1.1c-0.2,0.4-0.5,0.6-0.9,0.6h-7.1v15.1C55.6,38,55.2,38.5,54.6,38.5z"></path></svg>